<svg width="32" height="32" viewBox="0 0 32 32" fill="none" xmlns="http://www.w3.org/2000/svg">
  <circle cx="16" cy="16" r="14" fill="#FF6B35" stroke="#D84315" stroke-width="2"/>
  <path d="M16 2C16 2 16 10 16 16C16 22 16 30 16 30" stroke="#D84315" stroke-width="2" stroke-linecap="round"/>
  <path d="M2 16C2 16 10 16 16 16C22 16 30 16 30 16" stroke="#D84315" stroke-width="2" stroke-linecap="round"/>
  <path d="M5 5C5 5 11 11 16 16C21 21 27 27 27 27" stroke="#D84315" stroke-width="1.5" stroke-linecap="round"/>
  <path d="M27 5C27 5 21 11 16 16C11 21 5 27 5 27" stroke="#D84315" stroke-width="1.5" stroke-linecap="round"/>
</svg>
